<?xml version="1.0" encoding="UTF-8"?>
<!DOCTYPE svg PUBLIC "-//W3C//DTD SVG 1.1//EN" "http://www.w3.org/Graphics/SVG/1.1/DTD/svg11.dtd">
<!-- Creator: CorelDRAW 2021 (64-Bit) -->
<svg xmlns="http://www.w3.org/2000/svg" xml:space="preserve" width="2.17404in" height="1.93465in" version="1.1" style="shape-rendering:geometricPrecision; text-rendering:geometricPrecision; image-rendering:optimizeQuality; fill-rule:evenodd; clip-rule:evenodd"
viewBox="0 0 572.03 509.04"
 xmlns:xlink="http://www.w3.org/1999/xlink"
 xmlns:xodm="http://www.corel.com/coreldraw/odm/2003">
 <defs>
  <style type="text/css">
   <![CDATA[
    .fil1 {fill:#383536}
    .fil0 {fill:#6B4F43}
    .fil3 {fill:#888687}
    .fil2 {fill:white}
   ]]>
  </style>
 </defs>
 <g id="Layer_x0020_1">
  <metadata id="CorelCorpID_0Corel-Layer"/>
  <g id="_2419274046912">
   <path class="fil0" d="M-0 340.34c0.08,0.06 0.22,0.01 0.28,0.13 0.3,0.66 13.44,-0.7 14.02,-0.74 5.12,-0.34 10.26,-0.57 15.42,-0.58 10.34,-0.02 20.19,0.96 30.35,1.69 -0.05,-2.62 -0.56,-1.8 -3.27,-2.29 -1.63,-0.3 -3.17,-0.69 -4.63,-1.16 -9.37,-2.99 -12.8,-9.15 -13.76,-19.81 -3.65,-40.25 -1.99,-91.88 -1.99,-132.78l9.26 9.14c3.18,3.36 5.59,6.31 9.21,9.58l36.59 38.93c3.44,3.07 9.64,10.68 13.62,14.55l4.68 5.08c0.81,0.88 1.34,1.72 2.15,2.56 6.14,6.36 11.62,13.37 17.9,19.66l4.35 5.05c3.69,4.65 9.92,10.48 13.45,15.09l28.44 32.98c1.27,1.4 2.91,4.43 4.87,5.08 0,-18.41 -1.03,-36.8 -1.01,-55.28 0.03,-36.86 -0.55,-74.36 1.71,-111.04 0.51,-8.28 0.31,-17.39 4.47,-23.78 3.33,-5.12 10.21,-7.39 16.23,-8.35 2.1,-0.33 1.89,0.12 1.99,-1.71 -1.43,-0.73 -12.89,0.64 -14.53,0.75 -5.16,0.34 -10.31,0.5 -15.55,0.5 -5.24,0 -10.4,-0.2 -15.55,-0.52 -4.15,-0.26 -10.82,-1.22 -14.7,-0.99 0.03,2.38 0.66,1.73 3.08,2.13 1.51,0.25 3.23,0.67 4.67,1.11 9.51,2.91 13.3,9.07 14.22,19.78 3.78,44.11 2.28,88.6 2.23,132.82 -1.88,-1.35 -21.26,-22.25 -22.99,-24.29l-18.27 -19.67c-0.75,-0.88 -1.36,-1.73 -2.16,-2.55l-6.85 -7.23c-1.49,-1.79 -3.07,-3.14 -4.5,-4.89 -6.52,-7.96 -18.03,-18.93 -24.84,-27.19 -0.83,-1.01 -1.48,-1.42 -2.33,-2.35l-8.89 -9.92c-0.81,-1 -1.46,-1.42 -2.31,-2.38l-18 -19.93c-0.89,-1.14 -1.17,-1.34 -2.26,-2.44l-4.4 -5c-1.97,-2.52 -4.7,-4.94 -6.66,-7.43 -0.87,-1.11 -1.6,-1.57 -2.45,-2.59l-15.49 -17.39c-0.75,-0.96 -1.14,-1.95 -2.55,-2.39 -0.42,3.14 0.06,10.07 0.16,13.6 0.86,32.63 0.44,65.32 0.45,97.95 0,18.15 -0.64,36.28 -1.54,54.23 -0.42,8.33 -0.28,17.69 -4.21,24.11 -3.27,5.34 -9.93,7.72 -15.99,8.58 -2.17,0.31 -1.97,-0.09 -2.1,1.61z"/>
   <path class="fil0" d="M245.88 177.13c2.1,-0.04 1.77,0.33 2.42,-1.93 6.4,-22.19 17.47,-24.44 39.39,-24.55 15.8,-0.08 34.55,-0.1 50.29,-0.61 5.28,-0.17 12.07,-0.41 17.25,-0.16 -0.7,1.79 -2.36,4.21 -3.43,5.99l-84.46 137.74 -22.65 35.16c-1.46,2.17 -2.48,3.73 -3.89,5.85 -1.02,1.54 -3.19,4.49 -3.88,6.16 12.19,0 24.44,-0.82 36.68,-0.92 37.86,-0.29 71.95,-1.1 110.27,1.52 -1.24,-11.98 -1.78,-17.87 -0.88,-29.95l0.73 -8.62c-0.02,-0.1 -0.05,-0.21 -0.07,-0.3l-0.21 -0.57c-2.09,0.14 -1.41,0.67 -2.98,5.77 -6.83,22.1 -14.97,22.7 -40.01,22.87 -23.85,0.16 -47.51,0.53 -71.37,0.53 0.53,-1.69 2.56,-4.63 3.52,-6.23l25.24 -41.97c9.65,-16.18 19.6,-31.64 29.1,-47.49 17.76,-29.66 37.21,-58.44 55.88,-87.56 1.11,-1.72 2.88,-4.01 3.76,-5.75l-70.69 0.96c-18.55,0 -34.38,-0.08 -52.76,-0.92 -4.32,-0.2 -13.5,-1.3 -17.24,-0.86 1.39,20.42 0.97,16.13 0,35.84z"/>
   <path class="fil0" d="M106.39 109.11c0.34,0.47 0.29,0.48 1.04,1.05l3.97 2.52c1.09,-2.25 10.14,-13.85 12.21,-16.25 1.44,-1.67 3.11,-3.55 4.44,-5.32 2.64,-3.51 6.02,-6.91 9.21,-9.93 1.67,-1.58 3.05,-3.4 4.68,-5.08 5.6,-5.78 14.08,-12.87 20.36,-17.94 5.49,-4.43 11.06,-8.11 16.81,-12.1 3.57,-2.48 8.06,-5.3 12.05,-7.45 4.2,-2.27 7.95,-4.36 12.53,-6.64 36.57,-18.29 73.53,-25.82 115.43,-25.82 36.4,0 70.94,9.48 100.37,22.49 14,6.19 28.31,14.57 39.11,22.3 2.92,2.09 5.96,4.25 8.77,6.4 3.02,2.3 5.73,4.59 8.66,6.88 0.84,0.65 1.08,0.99 1.89,1.71 2.88,2.56 7.98,6.49 10.29,9.23 1.31,1.55 2.62,2.52 4.09,3.86l14.71 16c1.11,1.18 2.29,2.75 3.41,4.18l9.91 13.22c8.45,11.7 15.57,24.35 22.52,38.9 12.94,27.09 23.04,66.04 23.04,100.16l0 9.39c0,32.48 -8.53,65.82 -19.69,92.68 -5.36,12.9 -12.19,25.99 -19.29,36.7 -1.94,2.93 -3.62,5.61 -5.61,8.49 -1.88,2.71 -3.88,5.41 -5.92,8.17l-9.3 11.67c-1.23,1.47 -2.01,2.6 -3.49,3.66 0.93,2.1 2.96,3.08 4.41,4.36 2.51,-2.24 4.49,-5.02 6.69,-7.65 5.92,-7.06 13.4,-17.34 18.25,-25.09 24.2,-38.63 40.09,-85.34 40.09,-133.7l0 -7.95c0,-44.98 -13.82,-87.55 -34.16,-123.73 -9.16,-16.3 -20.95,-31.88 -33.44,-45.69l-15.73 -15.69 -17.36 -14.44c-28.58,-21.74 -60.41,-37.14 -96.59,-45.73 -20.75,-4.93 -39.17,-6.91 -61.05,-6.91 -21.94,0 -49.6,3.66 -69.41,9.72 -35.36,10.81 -62.13,24.06 -90.83,47.56 -0.85,0.7 -1.85,1.56 -2.52,2.17 -2.46,2.25 -5.87,4.88 -7.95,7.22 -1.56,1.76 -3.34,2.78 -5.05,4.7l-18.69 20.7c-4.33,5.75 -8.38,10.03 -12.87,17.04z"/>
   <path class="fil1" d="M256.9 478.79c-1.33,-0.39 -4.09,-1.68 -5.21,-1.38 -0.77,0.2 -9.26,8.24 -11.53,9.47 -0.38,-2.46 -2.48,-13.16 -3.39,-14.8l-5.03 -1.64 -7.23 21.65 5.7 1.86 3.64 -10.23 1.34 4.84c0.41,1.71 0.72,3.4 1.17,4.97 2.51,3.62 7.87,-4.09 11.28,-5.83l-3.55 11.01 5.65 1.93 7.17 -21.85z"/>
   <path class="fil1" d="M168.27 460.07c0.66,-1.83 5.19,-7.66 6.63,-9.54 0.52,3.5 0.65,7.63 0.9,11.21 0.24,3.35 -0.59,4.53 4.6,7.18 1.34,-1.1 12.01,-16.64 13.26,-18.39 -0.81,-1.02 -3.57,-2.96 -4.95,-3.72l-1.13 1.14c-0.42,0.57 -0.5,0.8 -0.85,1.32l-5.17 7c-0.33,-3.76 -0.57,-7.43 -0.84,-11.16 -0.26,-3.56 0.67,-4.66 -4.65,-7.22 -1.21,1.26 -2.29,2.96 -3.4,4.54 -2.05,2.92 -9.21,12.53 -9.79,14.41 2.15,0.72 3.16,2.5 5.42,3.23z"/>
   <path class="fil1" d="M422.04 466.07c3.9,-3.06 9.35,-4.64 12.04,0.28 3.09,5.64 -2.35,8.83 -6.13,10.44l-5.92 -10.72zm2.94 18.42c1.97,-0.59 11.21,-6.26 12.51,-7.36 8.39,-7.14 1.87,-23.24 -11.26,-19.2 -2.94,0.9 -9.97,5.15 -12.7,6.89l11.45 19.67z"/>
   <path class="fil1" d="M271.74 494.06c-0.61,-1.31 0.38,-4.19 0.63,-6.48 3.07,0.33 7.41,0.73 6.89,4.38 -0.52,3.66 -4.73,2.74 -7.52,2.1zm8.55 5.61c3.03,-1.99 4.04,-1.42 5.23,-5.41 1.03,-3.43 -0.04,-6.36 -1.95,-8.18 -2.95,-2.8 -12.45,-4.62 -16.71,-4.69l-3.88 22.26c1.58,0.78 4.34,1.07 6.2,1.3 0.65,-1.77 0.46,-4.69 1.59,-5.9 3.59,1.06 2.24,-1.11 5.18,5.5 0.87,1.95 1,1.86 3.17,2.22 1.5,0.25 2.99,0.59 4.51,0.68l-3.34 -7.78z"/>
   <path class="fil1" d="M213.46 471.85c-2.19,9.28 -13.75,6.21 -12.27,-1.59 0.58,-3.03 3.3,-5.97 6.92,-5.57 3.26,0.36 6.23,3.38 5.35,7.15zm-18.47 1.45c1.31,5.47 7.17,10.46 14.21,9.95 6.39,-0.46 11.91,-6.55 10.52,-13.88 -1.13,-5.93 -7.1,-10.98 -14.43,-10.33 -6.38,0.56 -12.1,6.75 -10.3,14.25z"/>
   <path class="fil1" d="M305.99 499.69l6.2 0.09 0.19 -4.56c-1.24,-0 -0.8,0.11 -1.46,-0.28l-8.48 -0.1 0.1 -3.76 11.37 0.13 0.24 -4.99c-3.85,0 -15.09,-0.85 -18,-0.19l-0.62 22.73 18.43 0.3 0.05 -4.92 -11.91 -0.31 0.21 -4.01 3.69 -0.11z"/>
   <path class="fil0" d="M97.6 390.44c1.84,5.44 18.52,25.92 22.85,31.51 0.73,0.94 1.32,1.32 2.06,2.26l6.56 7.17c1.61,-0.85 2.97,-2.66 4.32,-3.97 -0.58,-1.13 -1.01,-1.52 -1.95,-2.37 -4.06,-3.64 -18.12,-21.99 -21.72,-27.05 -2.21,-3.11 -4.92,-7.28 -6.96,-10.61l-5.18 3.06z"/>
   <path class="fil1" d="M453.12 446.17c1.6,-1.17 5.39,-4.04 6.74,-4.52 -0.38,-1.39 -1.94,-3.5 -2.6,-4.43 -1.54,0.62 -2.58,1.66 -3.97,2.61l-10.49 7.62c-0.03,-0.06 -0.13,0.13 -0.18,0.21l13.08 18.42 7.52 -5.13c2.59,-1.9 4.94,-3.42 7.33,-5.35 -0.64,-1.57 -1.83,-2.61 -2.44,-4.12 -2.42,0.86 -7.9,5.97 -10.36,6.82 -0.5,-1.26 -1.34,-2.07 -1.98,-3.37l8.01 -5.83c-0.47,-1 -1.9,-3.07 -2.66,-3.82 -2.58,1.08 -5.66,4.45 -8.46,5.65 -0.55,-1.01 -1.12,-1.74 -1.79,-2.92l2.26 -1.84z"/>
   <path class="fil1" d="M396.63 478.57c1.45,0.83 4.09,4.03 5.11,5.32l-5.11 1.88 0 -7.2zm8.84 9.21c1.31,1 1.73,2.18 3.61,3.23l5.98 -2.44c-2.94,-3.55 -14.18,-13.21 -17.45,-17.66l-6.28 2.34 -0.96 25.14 6.11 -2.28 0.26 -5.02 8.73 -3.3z"/>
   <path class="fil1" d="M369.34 498.01c0.67,-2.47 3.44,-7.16 4.82,-9.77 3.76,-7.08 3.05,-4.89 2.12,-9.95l-19.29 4.41 1.15 5.11 10.64 -2.35c-0.74,2.7 -5.36,10.6 -7.1,14.15 -1.1,2.26 -0.39,2.79 0.19,5.55l19.93 -4.52c-0.23,-1.76 -0.5,-3.65 -1.29,-5.11l-11.18 2.49z"/>
   <path class="fil2" d="M484.5 357.54c-5.65,2.57 -3.63,19.17 3.46,16.15 5.26,-2.23 3.42,-19.28 -3.46,-16.15z"/>
   <path class="fil2" d="M213.46 471.85c0.89,-3.77 -2.08,-6.79 -5.35,-7.15 -3.62,-0.4 -6.34,2.53 -6.92,5.57 -1.49,7.8 10.08,10.87 12.27,1.59z"/>
   <path class="fil2" d="M422.04 466.07l5.92 10.72c3.77,-1.62 9.22,-4.8 6.13,-10.44 -2.69,-4.92 -8.14,-3.34 -12.04,-0.28z"/>
   <path class="fil0" d="M401.88 374.93l5.66 -0.08c-2.39,-1.53 -1.98,-1.72 -2.09,-5.24 -0.08,-2.67 -0.11,-5.33 -0.06,-8 1.78,0.98 5.23,4.91 6.9,6.59 1.17,1.17 1.98,2.21 3.08,3.43 0.57,0.64 2.99,2.97 3.48,3.34 0.31,-4.13 -0.21,-10.17 0.14,-15.49 0.15,-2.3 0.41,-2.09 1.95,-3.15l-5.61 0.05c2.32,1.2 1.98,2.16 2.09,5.27 0.09,2.49 0.16,5.44 -0.02,7.9 -1.58,-1.1 -5.22,-4.96 -6.75,-6.6l-6.66 -6.67c-0.37,4.82 0.14,10.37 -0.19,15.45 -0.18,2.7 -0.4,2.01 -1.92,3.19z"/>
   <path class="fil0" d="M511.69 365.8c11.95,4.67 -1.04,12.82 -2.27,5.25 -0.47,-2.88 0.83,-4.22 2.27,-5.25zm2.89 -1.95c-3.68,-0.59 -5.11,-5.74 -1.74,-6.58 2.09,-0.52 3.43,0.75 3.57,2.6 0.15,2.02 -0.83,3.04 -1.83,3.98zm-3.84 1.42c-0.28,0.24 -0.15,0.16 -0.66,0.53 -1.31,0.95 -3.6,2.39 -2.6,5.83 0.72,2.47 3.68,3.76 6.72,3.38 3.47,-0.43 8.59,-4.87 1.84,-10.13l-0.45 -0.37c-0.07,-0.06 -0.17,-0.16 -0.22,-0.21 -0.06,-0.05 -0.16,-0.14 -0.23,-0.22 4.89,-1.43 4.23,-8.23 -2,-7.95 -2.38,0.11 -4.25,1.46 -4.73,3.4 -0.8,3.25 1.1,4.49 2.34,5.73z"/>
   <path class="fil0" d="M484.5 357.54c6.88,-3.13 8.72,13.92 3.46,16.15 -7.09,3.01 -9.11,-13.58 -3.46,-16.15zm-0.36 -1.11c-9.08,2.79 -6.48,21 3.89,18.41 3.97,-0.99 6.33,-6.15 5.48,-11.27 -0.72,-4.31 -4.23,-8.72 -9.38,-7.14z"/>
   <path class="fil0" d="M443.55 374.86l11.03 -0.04 -0.05 -3.78c-0.56,0.89 -0.49,1.89 -1.89,2.41 -1.22,0.46 -3.15,0.38 -4.09,-0.2 -0.66,-0.42 -1.04,0.18 -1.09,-3.26 -0.02,-1.44 0.01,-2.9 0.01,-4.34 3.26,-0.4 4.09,-0.06 5.35,1.49l-0.01 -4.11c-0.6,0.75 -0.67,1.25 -1.85,1.52 -1.02,0.24 -2.45,0.1 -3.48,-0.03l0.11 -6.94c5.52,-0.73 5.44,0.26 6.9,2.22l-0.06 -3.39 -11.62 -0.02c2.85,1.45 2.14,2.97 2.14,8.52 -0,1.8 0.03,3.63 0.01,5.43 -0.03,2.46 0,2.69 -1.18,4.25 -0.05,0.07 -0.15,0.17 -0.22,0.27z"/>
   <path class="fil0" d="M439.53 374.06l-0.08 -3.8c-1.04,1.52 -1.02,2.51 -2.95,3.27 -9.95,3.92 -14.55,-12.54 -6.03,-15.76 5.75,-2.17 7.32,1.4 8.52,3.09l0.06 -3.71c-3.79,-1.03 -7.06,-1.77 -10.85,0.14 -6.61,3.33 -6.48,13.57 -0.02,16.69 4.03,1.95 7.34,0.99 11.34,0.08z"/>
   <path class="fil0" d="M464.05 357.06l-0.02 3.54c0.46,-0.69 1.79,-4.65 5.91,-3.09 4.69,1.78 0.83,9.2 -2.33,12.45 -1.09,1.12 -4.26,4.04 -4.78,5.02l12.64 -0.09 -0.08 -4.8c-2.24,3.31 -0.48,2.94 -9.05,2.94 0.59,-0.99 -0.05,-0.1 0.61,-0.76 2.28,-2.33 6.46,-5.21 7.58,-9.45 1.86,-7.02 -5.36,-7.18 -10.48,-5.76z"/>
   <path class="fil0" d="M378.83 370.38l-0.12 3.37c2.07,0.95 4.27,2.05 7.16,0.86 1.96,-0.81 3.69,-2.59 3.15,-5.55 -0.86,-4.77 -8.83,-5.74 -7.21,-10.43 0.58,-1.18 3.68,-3.35 6.19,1.52l-0 -3.06c-5.5,-3.31 -13.74,2.1 -5.22,8.84 1.36,1.08 5.73,3.99 3.21,6.97 -0.89,1.05 -2.78,1.46 -4.46,0.78 -1.76,-0.71 -1.74,-1.7 -2.71,-3.3z"/>
   <path class="fil0" d="M394.63 361.66l-0.17 11.09c-0.2,1.03 -0.51,1.23 -1.17,1.85 -0.06,0.05 -0.17,0.13 -0.24,0.21l5.7 0.02c-0.85,-1.29 -1.59,-0.07 -1.59,-4.86l0 -8.67c0,-3.45 -0.05,-3.45 2.14,-4.96l-6.81 0.06c2.29,1.52 2.14,1.79 2.14,5.26z"/>
   <path class="fil0" d="M496.73 359.27c1,-0.56 2.26,-0.53 3.52,-0.27 0.54,2.24 0.34,5.49 0.34,8.07 0,2.01 0.29,5.26 -0.83,6.95l-0.4 0.55c-0.05,0.08 -0.15,0.18 -0.22,0.28l5.44 -0.08c-1.36,-1.08 -1.39,-1.79 -1.47,-3.76l0.22 -14.81c-1.13,0.34 -6.3,2.38 -6.6,3.06z"/>
   <path class="fil2" d="M511.69 365.8c-1.44,1.03 -2.74,2.37 -2.27,5.25 1.23,7.57 14.22,-0.59 2.27,-5.25z"/>
   <path class="fil2" d="M271.74 494.06c2.8,0.65 7,1.56 7.52,-2.1 0.52,-3.65 -3.82,-4.06 -6.89,-4.38 -0.24,2.29 -1.23,5.17 -0.63,6.48z"/>
   <path class="fil1" d="M334.03 506.18c1.27,4.03 8.49,2.71 7.14,-2.47 -1.07,-4.11 -8.81,-2.82 -7.14,2.47z"/>
   <path class="fil2" d="M514.58 363.85c1,-0.94 1.98,-1.96 1.83,-3.98 -0.13,-1.85 -1.48,-3.12 -3.57,-2.6 -3.37,0.84 -1.95,5.99 1.74,6.58z"/>
   <path class="fil2" d="M396.63 485.78l5.11 -1.88c-1.02,-1.29 -3.66,-4.49 -5.11,-5.32l0 7.2z"/>
   <path class="fil3" d="M305.99 499.69c1.09,0.49 5.43,0.47 6.54,0.22l0.04 -4.94 -1.65 -0.04c0.66,0.39 0.22,0.28 1.46,0.28l-0.19 4.56 -6.2 -0.09z"/>
  </g>
 </g>
</svg>
