<?xml version="1.0" encoding="UTF-8"?>
<!DOCTYPE svg PUBLIC "-//W3C//DTD SVG 1.1//EN" "http://www.w3.org/Graphics/SVG/1.1/DTD/svg11.dtd">
<!-- Creator: CorelDRAW 2021 (64-Bit) -->
<svg xmlns="http://www.w3.org/2000/svg" xml:space="preserve" width="5.28207in" height="5.28207in" version="1.1" style="shape-rendering:geometricPrecision; text-rendering:geometricPrecision; image-rendering:optimizeQuality; fill-rule:evenodd; clip-rule:evenodd"
viewBox="0 0 5165.59 5165.59"
 xmlns:xlink="http://www.w3.org/1999/xlink"
 xmlns:xodm="http://www.corel.com/coreldraw/odm/2003">
 <defs>
  <style type="text/css">
   <![CDATA[
    .fil1 {fill:none}
    .fil0 {fill:#593189}
   ]]>
  </style>
 </defs>
 <g id="Layer_x0020_1">
  <metadata id="CorelCorpID_0Corel-Layer"/>
  <path class="fil0" d="M3511.38 2784.74l221.32 -169.25c6.2,-4.62 11.71,-9.11 17.71,-13.7l55.57 -43.86c94.67,-75.43 197.8,-155.34 289.29,-232.34l35.43 -29.12c5.65,-4.39 11.36,-9.37 17.06,-14.35 6.22,-5.44 12,-9.27 18.28,-14.86 33.25,-29.63 88.66,-73.42 124.64,-103.9l88.22 -75.77c13.18,-14.73 3.4,-28.19 -5.12,-46.42 -3.83,-8.19 -6.06,-15.05 -9.89,-23.25l-109.27 -250.1c-5.02,-11.47 -14.92,-36.25 -20.98,-45.31 -9.33,2.18 -26.05,19.11 -34.47,26.59l-55.02 47.91c-4.6,3.87 -5.89,4.35 -10.38,8.81l-33.45 29.35c-5.49,4.24 -6.34,5.69 -11.05,9.88l-33.82 28.98c-7.37,5.93 -14.08,12.51 -21.09,19.04 -4.34,4.03 -6.79,5.22 -11.36,9.58 -28.48,27.12 -82.69,69.48 -109.89,95.97l-66.32 57.54c-4.65,4.63 -6.75,5.58 -11.3,9.63 -4.35,3.87 -5.71,5.17 -10.31,8.87 -18.03,14.44 -58.37,52.48 -77.52,67.29 -7.84,6.07 -14.22,13.05 -22.41,19.46l-44.23 37.77c-7.67,6.68 -15.29,12.24 -22.63,19.24l-114.24 93.37c-7.65,6.27 -15.47,13.26 -23.96,17.85l-3.48 -69.85c-0.21,-16.91 -5.47,-49.26 -5.28,-67.99 0.2,-19.87 -1.15,-12.22 -3.05,-21.38 -1.4,-6.75 -0.22,-18.37 -0.4,-25.77 -0.24,-10.01 -2.86,-12.32 -3.5,-20.66 -0.62,-8.03 0.75,-16.3 -0.46,-24.22l-6.81 -43.78c-3.71,-13.5 1.94,-9.04 -4.16,-32.47 -1.19,-4.59 -0.8,-6.49 -0.82,-11.4 -0.04,-12.25 -2.74,-11.74 -3.44,-20.98 -0.86,-11.32 1.05,-14.01 -3.54,-22.17 -2.04,-9.79 -1.85,-21.29 -3.69,-31.65 -3.33,-18.68 -2.75,-6.94 -5.25,-31.39 -0.28,-2.81 -0.63,-4.43 -1.56,-7.28 -4.88,-15.02 -1.29,-1.62 -3.67,-18.77l-26.49 -118.44c-3.7,-12.12 -0.82,-18.35 -8.2,-29.07 -0.42,-16.33 -9.44,-25.08 -12.43,-39.28 -0.95,-4.5 -1.57,-10.47 -3.04,-14.4 -2.3,-6.15 -3.38,-4.5 -5.52,-11.93 -1.57,-5.46 -1.5,-8 -3.98,-13.46 -1.96,-4.33 -3.95,-7.22 -5.89,-11.55 -3.93,-8.74 -4.82,-16.3 -10.04,-24.86 -4.1,-6.73 -2.57,-4.23 -5.29,-12.15l-50.28 -89.29c-17.19,-22.7 -18.16,-29.25 -44.31,-60.37l-33.24 -36.54c-47.34,-41.47 -85.35,-74.7 -144.08,-101.9 -25.63,-11.88 -50.5,-19.92 -77.7,-28.71 -28.53,-9.21 -72.76,-16.36 -114.93,-18.97l-62.13 0c-4.19,0.34 -8.22,0.76 -12.05,1.27 -11.37,1.51 -20.87,1.32 -32.17,2.72 -29.34,3.64 -60.3,10.1 -89.11,17.3l-54.43 15.35c-8.81,2.41 -18.31,5.58 -26.39,8.5 -42.12,15.23 -85.25,31.32 -126.53,49.67l-153.11 75.43c-4.34,2.59 -7.45,3.77 -11.4,6.04 -51.55,29.76 -102.85,60.88 -152.21,93.78l-259.34 195.98c-4.25,3.43 -5.29,4.2 -9.41,8.04l-192.77 175.33c-29.59,29.59 -68.58,64.94 -95.15,96.74l-68.26 73.05c-12.67,16.41 -28.54,29.64 -41.14,46.09 -3.11,4.07 -4.84,5.29 -8.2,9.24l-15.8 19.09c-3.3,3.72 -5.1,4.79 -8.41,9.04l-215.33 276.64c-58.8,83.35 -114.85,166.96 -165.18,257 -55.93,100.06 -104.89,202.39 -145.07,310.26l-17.97 51.81c-9.73,25.83 -17.11,52.18 -24.91,79.76 -21.01,74.27 -38.15,157.07 -42.86,238.68l0 84.85c2.36,37.18 8.08,73.36 18.05,107.53 25.87,88.65 74.25,164.21 147.7,220.4 3.95,3.02 5.13,4.53 9.73,7.72 88.59,61.37 184.69,90.03 295.55,90 35.46,-0.01 67.96,-0.07 101.72,-4.7 60.7,-8.33 117.75,-16.03 177.05,-32.3 80.99,-22.22 160.95,-49.54 239.1,-78.41 49.37,-18.24 99.63,-39.72 147.37,-61.97l95.38 -44.18c30.22,-15.22 113.51,-55.13 139.9,-71.2 27.63,-16.82 61.83,-32.58 90.46,-49.09 14.87,-8.57 30.13,-15.91 44.94,-24.85l393.64 -239.63 147.16 -97.08c77.33,-51.32 151.92,-106.52 228.54,-158.75 14.18,-9.66 26.44,-19.35 40.84,-28.95 6.98,-4.65 13.71,-9.56 20.33,-14.56 13.16,-9.95 49.79,-40.35 63.17,-43.37l-8.34 79c-6.34,31.83 -2.1,22.52 -4.4,39.21 -3.7,26.78 -3.07,8.31 -3.07,40.72l-5.56 48.35c-3.01,12.18 -4.45,33.98 -4.91,49.16 -0.55,18.16 -5.27,28.75 -5.19,48.91 0.03,8.95 -1.08,14.97 -2.1,24.06 -0.79,6.96 -1.67,18.08 -3.18,25.01l-29.66 287.58c11.78,7.89 15.77,5.23 34.89,5.23l122.16 0.04c36.37,0.19 30.79,-15.06 35.37,-46.62 9.02,-62.19 14.83,-121.27 23.16,-180.96 0.98,-7.05 0.94,-13.62 1.99,-18.94 4.38,-22.28 4.03,-12.94 3.92,-36.21l15.77 -128.39c5.21,-9.27 3.17,-12.66 3.42,-25.13 0.19,-9.99 3.74,-16.07 4.9,-24.76 1.47,-11.12 -0.57,-15.17 2.38,-25.53 2.35,-8.28 4.15,-55.02 7.17,-64.36 4.74,-14.65 6.56,-52.52 6.56,-68.33 6.74,-10.12 2.01,-21.72 3.68,-34.82 0.58,-4.55 2.23,-7.37 2.88,-11.07 1.32,-7.48 0.14,-17.96 0.32,-25.85 0.29,-12.56 4.92,-12.31 5.36,-22.67l-0.08 -22.6c1.44,-26.09 7.03,-50.08 7.03,-73.47zm-221.23 -674.92c3.31,61.35 16.3,126.44 16.13,188.45 -0.05,17.22 1.61,31.5 3.15,48.25l3.03 152.86c-10.85,7.82 -21.98,17.23 -32.86,25.9 -294.82,234.9 -801.18,592.49 -1109.73,763.91 -51.4,28.56 -102.02,57.21 -155.1,85.69 -52.29,28.05 -107.34,54.23 -162.82,79.66 -100.65,46.14 -250.34,102.35 -360.33,122.79 -79.08,14.69 -240.94,35.25 -280.5,-56.96 -60.55,-141.11 22.11,-369.81 73.55,-488.4 89.46,-206.27 228.05,-432.99 361.21,-605.22 149.06,-192.8 296.26,-343.13 470.76,-495.7 181.24,-158.47 541.09,-424.11 780.65,-426.65 181.31,-1.93 266.97,133.92 321.38,284.12 8.87,24.48 24.47,69.13 27.94,92.57 7.73,38.07 17.49,74.15 24.95,112.94 7.19,37.4 14.27,77.04 18.6,115.81z"/>
  <rect class="fil1" x="-0" y="-0" width="5165.59" height="5165.59"/>
 </g>
</svg>
