<?xml version="1.0" encoding="UTF-8"?>
<!DOCTYPE svg PUBLIC "-//W3C//DTD SVG 1.1//EN" "http://www.w3.org/Graphics/SVG/1.1/DTD/svg11.dtd">
<!-- Creator: CorelDRAW 2021 (64-Bit) -->
<svg xmlns="http://www.w3.org/2000/svg" xml:space="preserve" width="5.28207in" height="5.28207in" version="1.1" style="shape-rendering:geometricPrecision; text-rendering:geometricPrecision; image-rendering:optimizeQuality; fill-rule:evenodd; clip-rule:evenodd"
viewBox="0 0 5281.65 5281.65"
 xmlns:xlink="http://www.w3.org/1999/xlink"
 xmlns:xodm="http://www.corel.com/coreldraw/odm/2003">
 <defs>
  <style type="text/css">
   <![CDATA[
    .fil1 {fill:none}
    .fil0 {fill:#FE0433;fill-rule:nonzero}
   ]]>
  </style>
 </defs>
 <g id="Layer_x0020_1">
  <metadata id="CorelCorpID_0Corel-Layer"/>
  <path class="fil0" d="M1146.25 2869.59c102,-313.69 266.49,-607.69 485.48,-854.88 9.39,210.46 16.01,422.13 60.05,628.75 187.49,-27.15 327.09,-165.37 466.34,-281.13 156.49,-127.94 338.41,-230.99 538.93,-268.25 384.18,-75.55 776.72,4.18 1163.68,-37.95 -436.57,171.29 -870.19,353.72 -1279.26,584.89 83.38,608.21 276.6,1195.37 366.94,1802.53 -119.58,-16.01 -262.33,14.1 -358.42,-76.42 -296.62,-290.18 -566.79,-605.77 -855.39,-903.62 -40.22,-39.17 -75.56,-83.38 -120.3,-117.5 -159.8,190.26 -289.84,403.16 -408.73,620.92 -142.03,-184.87 -163.1,-430.32 -137.69,-654.52 17.76,-148.65 27.33,-300.8 78.34,-442.84zm1484.31 -1993.89c-84.75,181.47 -130.46,377.95 -170.07,573.45 554.61,-0.35 1125.39,-53.79 1662.75,116.97 105.84,54.49 72.42,197.06 99.74,293.66 -523.43,50.66 -1051.57,11.66 -1573.79,77.12 -245.97,47 -483.58,141 -735.82,153.19 8.19,-224.21 13.75,-448.59 17.41,-673.15 -142.05,132.82 -270.68,285.13 -442.33,381.4 -109.49,63.53 -241.44,88.95 -366.08,61.44 213.77,-118.19 462.87,-193.74 624.59,-387.3 206.07,-238.67 461.3,-427.51 724.04,-599.13 35.2,-22.95 192.21,-67.51 159.55,2.35z"/>
  <rect class="fil1" x="-0" y="-0" width="5281.65" height="5281.65"/>
 </g>
</svg>
