<?xml version="1.0" encoding="UTF-8"?>
<!DOCTYPE svg PUBLIC "-//W3C//DTD SVG 1.1//EN" "http://www.w3.org/Graphics/SVG/1.1/DTD/svg11.dtd">
<!-- Creator: CorelDRAW 2021 (64-Bit) -->
<svg xmlns="http://www.w3.org/2000/svg" xml:space="preserve" width="5.28207in" height="5.28207in" version="1.1" style="shape-rendering:geometricPrecision; text-rendering:geometricPrecision; image-rendering:optimizeQuality; fill-rule:evenodd; clip-rule:evenodd"
viewBox="0 0 5165.59 5165.59"
 xmlns:xlink="http://www.w3.org/1999/xlink"
 xmlns:xodm="http://www.corel.com/coreldraw/odm/2003">
 <defs>
  <style type="text/css">
   <![CDATA[
    .fil0 {fill:none}
    .fil1 {fill:#B51144;fill-rule:nonzero}
   ]]>
  </style>
 </defs>
 <g id="Layer_x0020_1">
  <metadata id="CorelCorpID_0Corel-Layer"/>
  <rect class="fil0" x="-0" y="-0" width="5165.59" height="5165.59"/>
  <path class="fil1" d="M2553.97 941.28c226.63,-20.29 458.53,-6.54 676.21,63.16 257.69,77.84 494.52,223.3 680.8,417.6 409.58,418.06 580.84,1062.52 406.71,1624.78 -146.38,497.27 -535.44,918.2 -1024.57,1093.47 -296.9,106.15 -624.52,119.68 -930.46,45.39 -164.5,-40.35 -312.03,-126.78 -471.94,-179.97 -200.49,-59.72 -422.18,-60.52 -617.17,19.83 -80.93,34.96 -184.22,52.27 -259.18,-4.93 -112,-73.25 -158.88,-242.1 -75.77,-353.29 83.8,-118.41 164.26,-244.05 193.84,-388.37 49.06,-196.36 7.68,-398 -10.43,-595.4 -6.53,-92.74 -7.8,-186.04 -2.53,-278.9 21.21,-250.92 112.91,-492.57 247.72,-704.06 164.5,-251.96 391.7,-465.75 661.88,-600.21 163.69,-83.8 342.63,-135.95 524.9,-159.11zm316.04 1342.9c80.93,-14.21 166.79,12.15 229.84,63.85 63.51,55.14 103.51,137.1 105.69,221.47 2.75,72.1 -5.04,144.66 -20.86,215.05 -8.02,28.09 -22.01,62.7 -54.79,67.75 -78.52,18.11 -160.03,24.76 -240.5,20.63 -92.05,-10.78 -183.87,-57.66 -233.73,-138.01 -57.77,-93.54 -56.86,-217.57 -2.63,-312.49 46.88,-75.89 129.53,-124.95 216.99,-138.24zm1010.02 -176.99c-210.46,33.93 -383.33,226.63 -390.43,440.3 -2.52,125.87 -0.12,251.85 -1.49,377.83 1.26,28.78 -2.41,60.99 15.36,85.86 23.73,31.29 67.29,51.13 106.03,37.6 44.48,-9.98 70.04,-57.32 67.74,-100.54 0.58,-118.64 0,-237.17 -0.11,-355.81 -8.14,-144.44 107.75,-288.53 255.63,-294.26 38.86,-3.55 76.92,5.5 114.97,12.04 59.27,12.61 115.09,-49.64 106.03,-106.84 -7.79,-33.93 -28.31,-67.98 -62.82,-79.55 -66.94,-25.79 -140.77,-22.93 -210.92,-16.62zm-2085.95 0.23c-200.49,30.26 -365.33,204.04 -390.32,404.3 -13.75,121.85 -3.9,244.85 -7.22,367.16 -0.12,53.53 -6.08,119.79 42.3,156.01 54.79,43.79 144.78,2.53 149.25,-66.6 3.44,-136.87 -1.49,-273.86 2.41,-410.61 7.45,-136.87 128.04,-260.33 267.2,-259.87 144.89,-10.2 281.31,116.24 284.29,261.02 2.41,125.98 -0.92,252.19 1.15,378.28 0,43.56 17.31,94.91 63.05,109.25 57.54,26.37 132.05,-24.3 128.04,-87.81 1.26,-129.87 0.23,-259.75 0.35,-389.75 0.23,-177.79 -111.66,-348.36 -272.48,-423.22 -82.42,-41.96 -177.34,-49.75 -268.01,-38.17zm1031.22 -12.95c-225.02,34.96 -405.45,246.8 -403.27,474.57 -9.4,235.11 177.45,461.39 412.44,489.48 128.38,29.23 253.79,-51.36 381.72,-14.79 53.42,9.4 121.85,47.11 165.07,-4.7 38.98,-39.21 -6.19,-89.19 -12.72,-132.63 -26.94,-84.94 2.53,-171.49 14.44,-256.2 33.94,-196.13 -71.87,-405.45 -244.62,-501.63 -94.11,-55.02 -206.34,-66.95 -313.06,-54.1z"/>
 </g>
</svg>
