<?xml version="1.0" encoding="UTF-8"?>
<!DOCTYPE svg PUBLIC "-//W3C//DTD SVG 1.1//EN" "http://www.w3.org/Graphics/SVG/1.1/DTD/svg11.dtd">
<!-- Creator: CorelDRAW 2021 (64-Bit) -->
<svg xmlns="http://www.w3.org/2000/svg" xml:space="preserve" width="5.28207in" height="5.28207in" version="1.1" style="shape-rendering:geometricPrecision; text-rendering:geometricPrecision; image-rendering:optimizeQuality; fill-rule:evenodd; clip-rule:evenodd"
viewBox="0 0 5281.65 5281.65"
 xmlns:xlink="http://www.w3.org/1999/xlink"
 xmlns:xodm="http://www.corel.com/coreldraw/odm/2003">
 <defs>
  <style type="text/css">
   <![CDATA[
    .fil1 {fill:none}
    .fil0 {fill:#FF9106}
   ]]>
  </style>
 </defs>
 <g id="Layer_x0020_1">
  <metadata id="CorelCorpID_0Corel-Layer"/>
  <path class="fil0" d="M2134.37 3458.58l237.39 0.96 -4.33 -1588.81 -230.73 2.44 -2.33 1585.41zm174.03 37.77c-49.55,-27.01 -105.92,-16.78 -191.33,-14.99 1.28,-26.85 4.43,-66.81 2.86,-92.83l-18.55 -65.73 -171.49 -2.74 -23.83 177.29c6.42,51.8 -36.54,35.33 170.68,38.67 21.95,97.04 263.36,604.34 335.52,773.47 20.89,48.97 24.17,79.18 65.29,115.01 35.25,-121.34 144.58,-229.27 94.58,-336.1 -53.56,-114.41 -104.68,-216.51 -149.43,-333.43l-114.31 -258.6zm353.55 -2137.7c27.25,34.19 34.15,39.39 70.84,79.77 37.74,41.53 30.59,51.09 77.05,84.7l445.04 -499.31c-52.21,-41.18 -155.18,-62.27 -229.98,-74.06l-362.94 408.9zm-1234.64 739.85l215.38 -56.56 -260.84 -604.59c-45.3,21.79 -96.46,87.93 -131.84,131.82 -55.8,69.22 -24.38,86.21 13.12,171.95 41.15,94.11 113.42,281.25 164.18,357.37zm134.56 2017.9c56.99,24.35 95.61,70.41 160.3,101.15 78.03,37.1 104.98,-13.36 171.53,-54.75 104.55,-65.02 232.52,-138.88 323.84,-209.48l-91.63 -202.73c-89.11,63.38 -480.47,284.79 -547.02,347.75l-17.03 18.06zm1827.35 -533.71l85.73 676.26c87.72,-40.75 140.63,-74.44 211.62,-132.13l-70.83 -538.93 -226.52 -5.2zm-2420.11 -282.41c25.53,79.85 54.09,167.4 104.86,233.03l528.55 3.81 21.19 -233.21 -654.6 -3.63zm978.06 -1747.63l209.92 60.03 101.07 -661.86c-60.23,8.95 -126.55,26.33 -182.68,45.13 -98.37,32.93 -76.43,113.2 -111.61,349.13 -5.35,35.86 -11.31,69.76 -17.15,106.95l0.46 100.62zm1810.15 820.42l661.05 204.42 -19.14 -191.73c-5,-18.86 1.26,-1.51 -7.77,-24.05 -10.96,-27.34 -5.44,-16.76 -18.33,-32.85l-517.23 -161.05 -98.57 205.27zm-2894.04 185.38c126.93,87.86 307.16,214.9 438.04,286.37l150.07 -172.38c-94.21,-65.85 -468.4,-325.63 -546.38,-357.66 -33.6,64.5 -36.05,164.65 -41.74,243.67zm2511.7 -972.47l28.22 225.45 661.85 -181.95c-25.86,-62.59 -108.14,-140.63 -144.15,-193.87l-545.92 150.37zm-881.1 2873.53l256.48 12.9 221.78 -497.31c-75.69,-45.74 -120.7,-91.54 -195.93,-122.76l-282.32 607.17zm1571.24 -1038.39c22.68,17.5 39.07,28.6 67.76,59.45 29.06,31.25 20.45,34.74 59.47,67.78l33.69 -24.59c87.28,-209.82 125.14,-160.24 -102.72,-403.04 -52.71,-56.17 -121.62,-154.44 -172.97,-204.7 -53.39,21.45 -155.93,87.49 -197.69,122.58 68.81,91.25 289.12,333.73 312.46,382.53zm-558.58 -2539.33l24.72 191.09 -202.26 29.3 19.7 182.17 206.9 -25.31 33.43 215.75 178.15 -49.93 -22.66 -195.09 209.64 -29.71 -35.25 -180.12 -206.27 27.4c-6.48,-73.96 -11.58,-184.68 -42.58,-238.08l-163.53 72.54zm-694.52 1045.21c9.47,-114.75 -39.55,-93.59 275.85,-93.38l-17.89 -160.41c-199.36,41.85 -106.63,77.93 -406.79,-272.72l-268.78 -314.89c-49.09,-54.44 -55.9,-54.96 -86.71,-112.29 -40.75,48.11 -65.73,277.6 -51.01,312.49l555.33 641.2zm-647.37 -93.43c218.54,0 222.79,-27.16 254.33,102.17 43.34,-21.87 14.64,-0.15 51.33,-38.18l126.29 -151.76c-34.99,-65.36 -80.54,-85.08 -118.65,-160.87 -52.42,22.92 -93.06,74.78 -128.98,116.03l-930.76 -278.88c22.31,70.42 58.54,144.66 88.26,214.2 39.93,93.43 30.53,69.8 190.41,116.36l354.14 108.64c147.4,24.64 -23.34,-27.71 113.62,-27.71zm874.75 1828.07c36.4,13.75 29.96,13.49 63.09,30.22l64.89 -143.08 970.06 3.01c-40.96,-54.17 -57.02,-67.64 -80.32,-124.42 -60.62,-32.6 -54,-66.84 -105.79,-113.02l-850.18 -2.67 -1.11 174.36 -135.99 0.82 -47.37 93.08 122.73 81.69zm-1440.68 62.56l-49.44 336.81c28.16,-12.11 240.05,-139.57 256.65,-170.02 56.76,-104.16 4.71,-287.35 73.69,-373.24 -13.97,-169.03 61.53,-340.98 59.64,-515.67l-234.66 -146.5c-39.68,52.44 -92.08,110.2 -132.83,162.29 36.31,31.66 74.68,57.82 121.63,75.16l-94.69 631.16zm1596.73 -1532.92l271.62 86.7 98.15 -197.03c-226.54,-80.94 -156.85,69.15 -281.48,-902.49 -9.71,-75.68 -3.42,-72.57 -29.43,-108.2 -198.52,309.33 -218.22,55.28 -154.59,492.68 23.86,164.03 51.52,488.13 95.72,628.34zm364.97 937.04c53.11,-44.02 140.86,-95.44 205.34,-134.87l599.64 -387.41c-3.39,-2.18 -8.14,-4.66 -10.57,-5.89 -2.41,-1.2 -7.57,-4.24 -10.58,-5.68 -63.9,-30.42 -240.37,-87.54 -289.9,-65.87l-735.18 469.71 36.89 279.54 217.52 -3.05 -13.15 -146.48zm-1127.52 603.76c36.36,26.1 2.05,-0.07 25.55,23.73l28.78 31.1 135.68 -83.22c142.72,89.36 264.06,175.28 406.29,266.21 120.33,76.92 288.81,207.26 407.57,262.31 -4,-58.42 -17.47,-133.44 -25.76,-199.52 -16.16,-128.73 -2.5,-93.22 -94.3,-151.34 -73.08,-46.27 -259.98,-152.79 -294.28,-203.48 -67.94,-20.42 -244.48,-152.07 -318.28,-199.15 -134.37,-85.75 -125.15,41.23 -319.55,106.26l48.29 147.1zm-570.83 -1724.65l-928.92 269.13 230.05 162.59c47.06,16.47 230.98,-47.78 292.18,-65.57 137.12,-39.86 496.65,-128.43 591.62,-178.27l48.12 -279.98 -210.93 -69.46 -22.12 161.56zm2185 -331.94c-348.93,46.93 -305.7,105.39 -425.47,359.29 -48,101.77 -231.26,471.32 -244.64,558.69 75.56,62.98 114.54,136.62 185.58,202.78 46.61,-17.3 146.73,-79.82 179.04,-113.41 -29.99,-42.33 -50.32,-79.59 -105.13,-120.77l410.62 -886.57zm-2672.42 1139.3c-37.23,39.48 -47.96,44.94 -81.28,87.51 -70.66,90.26 -272.63,283.3 -316.59,368.32l318.12 0.54 578.45 -663.76c-7.47,-91.25 -82.35,-191.53 -105.05,-284.62 -69.9,11.9 -169.82,31.03 -212.77,67.92l60.09 160.5c-46.54,22.84 -101.06,101.12 -165.45,169.49 -30.51,32.39 -45.03,61.8 -75.5,94.1zm1478.39 -943.9c-20.2,265.22 -0.6,600.07 -0.91,873.4 -0.24,206.06 17.4,198.25 85.69,363.47 22.98,55.58 96.15,262.42 139.95,297.94l-7.77 -1534.51 -216.96 -0.3zm-452.88 88.73c-1.57,161.48 -4.33,332.69 -0.65,493.55 2.18,95.31 349.74,896.5 415.7,1007.35l254.6 -4.97 -669.65 -1495.93z"/>
  <rect class="fil1" x="-0" y="-0" width="5281.65" height="5281.65"/>
 </g>
</svg>
